<?xml version="1.0" encoding="UTF-8" standalone="no"?>
<!-- Created with Inkscape (http://www.inkscape.org/) -->

<svg
   xmlns:dc="http://purl.org/dc/elements/1.1/"
   xmlns:cc="http://creativecommons.org/ns#"
   xmlns:rdf="http://www.w3.org/1999/02/22-rdf-syntax-ns#"
   xmlns:svg="http://www.w3.org/2000/svg"
   xmlns="http://www.w3.org/2000/svg"
   xmlns:sodipodi="http://sodipodi.sourceforge.net/DTD/sodipodi-0.dtd"
   xmlns:inkscape="http://www.inkscape.org/namespaces/inkscape"
   width="85.79908mm"
   height="8.3989344mm"
   viewBox="0 0 85.79908 8.3989344"
   version="1.1"
   id="svg8"
   sodipodi:docname="title2.svg"
   inkscape:version="0.92.3 (2405546, 2018-03-11)">
  <defs
     id="defs2" />
  <sodipodi:namedview
     id="base"
     pagecolor="#ffffff"
     bordercolor="#666666"
     borderopacity="1.0"
     inkscape:pageopacity="0.0"
     inkscape:pageshadow="2"
     inkscape:zoom="1"
     inkscape:cx="314.84059"
     inkscape:cy="-227.44534"
     inkscape:document-units="mm"
     inkscape:current-layer="text823"
     showgrid="false"
     inkscape:window-width="1920"
     inkscape:window-height="1043"
     inkscape:window-x="0"
     inkscape:window-y="0"
     inkscape:window-maximized="1"
     fit-margin-top="0"
     fit-margin-left="0"
     fit-margin-right="0"
     fit-margin-bottom="0" />
  <metadata
     id="metadata5">
    <rdf:RDF>
      <cc:Work
         rdf:about="">
        <dc:format>image/svg+xml</dc:format>
        <dc:type
           rdf:resource="http://purl.org/dc/dcmitype/StillImage" />
        <dc:title></dc:title>
      </cc:Work>
    </rdf:RDF>
  </metadata>
  <g
     inkscape:label="Layer 1"
     inkscape:groupmode="layer"
     id="layer1"
     transform="translate(-16.320209,-80.256153)">
    <text
       xml:space="preserve"
       style="font-style:normal;font-variant:normal;font-weight:500;font-stretch:normal;font-size:10.58333302px;line-height:1.25;font-family:'Arima Madurai';-inkscape-font-specification:'Arima Madurai, Medium';font-variant-ligatures:normal;font-variant-caps:normal;font-variant-numeric:normal;font-feature-settings:normal;text-align:start;letter-spacing:0px;word-spacing:0px;writing-mode:lr-tb;text-anchor:start;fill:#000000;fill-opacity:1;stroke:none;stroke-width:0.26458332"
       x="15.119047"
       y="93.648811"
       id="text817"><tspan
         sodipodi:role="line"
         id="tspan819"
         x="15.119047"
         y="101.92575"></tspan></text>
    <g
       aria-label="The Galton board"
       style="font-style:normal;font-variant:normal;font-weight:normal;font-stretch:normal;font-size:10.58333302px;line-height:1.25;font-family:'IM FELL English';-inkscape-font-specification:'IM FELL English';letter-spacing:0px;word-spacing:0px;fill:#e1c440;fill-opacity:1;stroke:none;stroke-width:0.26458332"
       id="text823">
      <path
         d="m 21.817895,80.673842 q 0.169333,0 0.169333,0.282223 0,0.191911 -0.09031,0.383822 -0.07902,0.180622 -0.2032,0.237066 l -0.259645,-0.06773 q -0.564444,-0.158044 -0.970844,-0.248355 -0.395111,-0.09031 -0.801511,-0.124178 l 0.01129,6.016978 q 0,0.835377 0.158044,1.253066 -0.09031,0.09031 -0.248355,0.158045 -0.146756,0.07902 -0.338667,0.07902 -0.270933,0 -0.440267,-0.146756 -0.158044,-0.158044 -0.158044,-0.417688 l -0.01129,-6.953956 q -0.745067,0.07902 -2.020711,0.451555 -0.124178,-0.05644 -0.214489,-0.237066 -0.07902,-0.191911 -0.07902,-0.383822 0,-0.124178 0.04516,-0.2032 0.04516,-0.07902 0.135467,-0.07902 z"
         style="font-style:normal;font-variant:normal;font-weight:500;font-stretch:normal;font-size:11.28888893px;font-family:'Arima Madurai';-inkscape-font-specification:'Arima Madurai, Medium';font-variant-ligatures:normal;font-variant-caps:normal;font-variant-numeric:normal;font-feature-settings:normal;text-align:start;writing-mode:lr-tb;text-anchor:start;fill:#e1c440;fill-opacity:1;stroke-width:0.26458332"
         id="path873"
         inkscape:connector-curvature="0" />
      <path
         d="m 27.69041,87.153665 q 0,0.790222 0.158045,1.253066 -0.259645,0.237067 -0.575734,0.237067 -0.259644,0 -0.428978,-0.146756 -0.158044,-0.158044 -0.158044,-0.417688 l -0.01129,-3.002845 q 0,-0.982133 -0.248355,-1.456267 -0.248356,-0.474133 -0.857956,-0.474133 -0.383822,0 -0.733778,0.282222 -0.338667,0.270934 -0.564444,0.869245 -0.214489,0.598311 -0.214489,1.501422 0,1.411111 0.02258,1.851378 0.03387,0.440266 0.158044,0.767644 -0.248356,0.225778 -0.587022,0.225778 -0.259645,0 -0.428978,-0.158044 -0.169333,-0.169334 -0.169333,-0.451556 v -7.2136 q -0.01129,-0.270933 0.146755,-0.4064 0.158045,-0.146756 0.4064,-0.146756 0.191911,0 0.361245,0.07902 0.180622,0.06773 0.270933,0.146755 -0.1016,0.316089 -0.135467,0.756356 -0.03387,0.428977 -0.04515,1.185333 l -0.01129,1.444978 q 0.248355,-0.6096 0.722489,-0.936978 0.474133,-0.338667 1.1176,-0.338667 1.806222,0 1.806222,2.3368 z"
         style="font-style:normal;font-variant:normal;font-weight:500;font-stretch:normal;font-size:11.28888893px;font-family:'Arima Madurai';-inkscape-font-specification:'Arima Madurai, Medium';font-variant-ligatures:normal;font-variant-caps:normal;font-variant-numeric:normal;font-feature-settings:normal;text-align:start;writing-mode:lr-tb;text-anchor:start;fill:#e1c440;fill-opacity:1;stroke-width:0.26458332"
         id="path875"
         inkscape:connector-curvature="0" />
      <path
         d="m 33.633481,87.018198 q 0.169333,0.06773 0.169333,0.259644 0,0.124178 -0.07902,0.316089 -0.2032,0.519289 -0.745067,0.790223 -0.541867,0.270933 -1.286933,0.270933 -1.253067,0 -1.975556,-0.778933 -0.7112,-0.778934 -0.7112,-2.223912 0,-1.4224 0.7112,-2.2352 0.7112,-0.8128 2.020711,-0.8128 0.948267,0 1.524,0.428978 0.587023,0.428978 0.587023,1.2192 0,0.835378 -0.677334,1.275645 -0.677333,0.440266 -1.862666,0.440266 -0.598312,0 -1.196623,-0.06773 0.135467,2.077156 1.840089,2.077156 0.6096,0 1.049867,-0.248356 0.451555,-0.259644 0.632178,-0.7112 z M 31.691792,83.03322 q -0.733778,0 -1.162756,0.632178 -0.417689,0.632178 -0.428978,1.817511 0.237067,0.02258 0.756356,0.04516 0.857956,0 1.377244,-0.3048 0.519289,-0.316089 0.519289,-1.1176 0,-0.587023 -0.3048,-0.824089 -0.3048,-0.248356 -0.756355,-0.248356 z"
         style="font-style:normal;font-variant:normal;font-weight:500;font-stretch:normal;font-size:11.28888893px;font-family:'Arima Madurai';-inkscape-font-specification:'Arima Madurai, Medium';font-variant-ligatures:normal;font-variant-caps:normal;font-variant-numeric:normal;font-feature-settings:normal;text-align:start;writing-mode:lr-tb;text-anchor:start;fill:#e1c440;fill-opacity:1;stroke-width:0.26458332"
         id="path877"
         inkscape:connector-curvature="0" />
      <path
         d="m 40.614778,88.655087 q -1.524,0 -2.348089,-1.038578 -0.824089,-1.049867 -0.824089,-3.014133 0,-1.964267 0.835378,-3.014134 0.835378,-1.061155 2.370666,-1.061155 0.575734,0 1.095023,0.158044 0.530577,0.146756 0.846666,0.417689 0.316089,0.270933 0.316089,0.587022 0,0.259645 -0.225778,0.440267 -0.225777,0.169333 -0.6096,0.158044 -0.07902,-0.643466 -0.451555,-0.982133 -0.372533,-0.338667 -0.948267,-0.338667 -2.088444,0 -2.088444,3.623734 0,3.623733 2.077155,3.623733 0.9144,0 1.253067,-0.666044 0.338667,-0.666045 0.338667,-1.535289 0,-1.332089 -0.801511,-1.546578 0.05644,-0.180622 0.237066,-0.270933 0.180622,-0.09031 0.428978,-0.09031 0.519289,0 0.857956,0.417689 0.338666,0.4064 0.338666,1.275644 0,0.801511 -0.3048,1.456267 -0.3048,0.643466 -0.9144,1.027289 -0.6096,0.372533 -1.478844,0.372532 z"
         style="font-style:normal;font-variant:normal;font-weight:500;font-stretch:normal;font-size:11.28888893px;font-family:'Arima Madurai';-inkscape-font-specification:'Arima Madurai, Medium';font-variant-ligatures:normal;font-variant-caps:normal;font-variant-numeric:normal;font-feature-settings:normal;text-align:start;writing-mode:lr-tb;text-anchor:start;fill:#e1c440;fill-opacity:1;stroke-width:0.26458332"
         id="path879"
         inkscape:connector-curvature="0" />
      <path
         d="m 49.937811,87.616509 q 0.124178,0.180622 0.124178,0.383822 0,0.259645 -0.248355,0.440267 -0.237067,0.180622 -0.587023,0.180622 -0.519289,0 -0.778933,-0.361244 -0.259644,-0.361245 -0.259644,-1.128889 v -0.180622 q -0.349956,0.767644 -0.970845,1.230489 -0.620889,0.451555 -1.388533,0.451555 -0.654756,0 -1.038578,-0.349955 -0.383822,-0.361245 -0.383822,-0.959556 0,-0.677333 0.519289,-1.140178 0.519289,-0.474133 1.365955,-0.7112 0.903111,-0.237066 1.840089,-0.2032 v -0.282222 q 0,-1.004711 -0.316089,-1.478844 -0.3048,-0.474134 -1.027289,-0.474134 -0.462844,0 -0.778933,0.214489 -0.316089,0.214489 -0.316089,0.688622 0,0.248356 0.112889,0.485423 0.124178,0.225777 0.361244,0.316088 -0.2032,0.237067 -0.598311,0.237067 -0.4064,0 -0.654755,-0.293511 -0.248356,-0.3048 -0.248356,-0.7112 0,-0.654756 0.587022,-1.004711 0.598312,-0.361245 1.6256,-0.361245 1.185334,0 1.738489,0.587023 0.564445,0.587022 0.564445,1.851377 v 2.190045 q 0,0.598311 0.395111,0.598311 0.09031,0 0.191911,-0.05644 0.1016,-0.05644 0.169333,-0.158045 z m -3.668889,0.316089 q 0.417689,0 0.857956,-0.316089 0.440267,-0.327378 0.733778,-0.846667 0.293511,-0.530577 0.3048,-1.1176 -0.417689,-0.02258 -0.880534,0.04516 -0.462844,0.05644 -0.778933,0.191911 -0.474133,0.180622 -0.733778,0.485422 -0.248355,0.3048 -0.248355,0.722489 0,0.361245 0.180622,0.598311 0.180622,0.237067 0.564444,0.237067 z"
         style="font-style:normal;font-variant:normal;font-weight:500;font-stretch:normal;font-size:11.28888893px;font-family:'Arima Madurai';-inkscape-font-specification:'Arima Madurai, Medium';font-variant-ligatures:normal;font-variant-caps:normal;font-variant-numeric:normal;font-feature-settings:normal;text-align:start;writing-mode:lr-tb;text-anchor:start;fill:#e1c440;fill-opacity:1;stroke-width:0.26458332"
         id="path881"
         inkscape:connector-curvature="0" />
      <path
         d="m 52.158724,88.62122 q -0.530577,0 -0.835377,-0.349955 -0.293511,-0.349956 -0.293511,-0.970845 v -6.479822 q 0,-0.270933 0.158044,-0.417689 0.169333,-0.146756 0.440267,-0.146756 0.349955,0 0.587022,0.237067 -0.1016,0.327378 -0.135467,0.790222 -0.02258,0.462845 -0.02258,1.411111 l -0.01129,4.538134 q 0,0.598311 0.428977,0.598311 0.124178,0 0.237067,-0.05644 0.112889,-0.05644 0.158044,-0.158045 0.135467,0.180622 0.135467,0.383822 0,0.270934 -0.248355,0.451556 -0.248356,0.169333 -0.598312,0.169333 z"
         style="font-style:normal;font-variant:normal;font-weight:500;font-stretch:normal;font-size:11.28888893px;font-family:'Arima Madurai';-inkscape-font-specification:'Arima Madurai, Medium';font-variant-ligatures:normal;font-variant-caps:normal;font-variant-numeric:normal;font-feature-settings:normal;text-align:start;writing-mode:lr-tb;text-anchor:start;fill:#e1c440;fill-opacity:1;stroke-width:0.26458332"
         id="path883"
         inkscape:connector-curvature="0" />
      <path
         d="m 55.685795,82.762287 q 0.191911,0 0.519288,-0.01129 0.327378,-0.01129 0.519289,-0.02258 l -0.01129,0.270934 q -0.01129,0.135466 -0.09031,0.214488 -0.07902,0.06773 -0.191911,0.06773 h -1.1176 v 0.4064 l -0.01129,3.544711 q 0,0.6096 0.541867,0.6096 0.158044,0 0.3048,-0.05644 0.158044,-0.05644 0.2032,-0.158044 0.135467,0.180622 0.135467,0.383822 0,0.282222 -0.282223,0.451556 -0.282222,0.169333 -0.733777,0.169333 -0.553156,0 -0.869245,-0.349955 -0.316089,-0.349956 -0.316089,-0.970845 v -4.030133 h -0.169333 q -0.451556,0 -0.677333,0.03387 l 0.01129,-0.282222 q 0.01129,-0.135467 0.09031,-0.2032 0.07902,-0.06773 0.2032,-0.06773 h 0.541866 V 81.81402 q 0,-0.259644 0.158045,-0.4064 0.169333,-0.146755 0.440266,-0.146755 0.316089,0 0.575734,0.225777 -0.124178,0.428978 -0.135467,1.275645 z"
         style="font-style:normal;font-variant:normal;font-weight:500;font-stretch:normal;font-size:11.28888893px;font-family:'Arima Madurai';-inkscape-font-specification:'Arima Madurai, Medium';font-variant-ligatures:normal;font-variant-caps:normal;font-variant-numeric:normal;font-feature-settings:normal;text-align:start;writing-mode:lr-tb;text-anchor:start;fill:#e1c440;fill-opacity:1;stroke-width:0.26458332"
         id="path885"
         inkscape:connector-curvature="0" />
      <path
         d="m 60.210348,88.655087 q -1.241778,0 -1.941689,-0.790222 -0.688622,-0.801511 -0.688622,-2.223911 0,-1.433689 0.688622,-2.2352 0.699911,-0.801512 1.941689,-0.801512 1.241778,0 1.9304,0.801512 0.688622,0.801511 0.688622,2.2352 0,1.4224 -0.688622,2.223911 -0.688622,0.790222 -1.9304,0.790222 z m 0,-0.428978 q 0.745067,0 1.128889,-0.666044 0.395111,-0.666045 0.395111,-1.919111 0,-1.275645 -0.395111,-1.941689 -0.383822,-0.666045 -1.128889,-0.666045 -0.756355,0 -1.151467,0.666045 -0.383822,0.666044 -0.383822,1.941689 0,1.253066 0.383822,1.919111 0.395112,0.666044 1.151467,0.666044 z"
         style="font-style:normal;font-variant:normal;font-weight:500;font-stretch:normal;font-size:11.28888893px;font-family:'Arima Madurai';-inkscape-font-specification:'Arima Madurai, Medium';font-variant-ligatures:normal;font-variant-caps:normal;font-variant-numeric:normal;font-feature-settings:normal;text-align:start;writing-mode:lr-tb;text-anchor:start;fill:#e1c440;fill-opacity:1;stroke-width:0.26458332"
         id="path887"
         inkscape:connector-curvature="0" />
      <path
         d="m 68.990634,87.153665 q 0.02258,0.869244 0.169334,1.253066 -0.259645,0.237067 -0.587022,0.237067 -0.259645,0 -0.428978,-0.146756 -0.169334,-0.158044 -0.169334,-0.417688 v -3.002845 q -0.01129,-0.970844 -0.259644,-1.433689 -0.248356,-0.462844 -0.846667,-0.462844 -0.383822,0 -0.733777,0.282222 -0.338667,0.270933 -0.564445,0.857956 -0.214489,0.587022 -0.214489,1.478844 0,1.411111 0.02258,1.851378 0.02258,0.440266 0.146756,0.767644 -0.09031,0.09031 -0.248356,0.158045 -0.146756,0.06773 -0.338667,0.06773 -0.270933,0 -0.440266,-0.158044 -0.158045,-0.169334 -0.158045,-0.451556 v -4.052711 q -0.01129,-0.316089 -0.09031,-0.440267 -0.06773,-0.135466 -0.225778,-0.135466 -0.214489,0 -0.293511,0.158044 -0.135466,-0.191911 -0.135466,-0.372533 0,-0.259645 0.191911,-0.417689 0.191911,-0.158045 0.530577,-0.158045 0.451556,0 0.688623,0.316089 0.248355,0.3048 0.248355,0.903111 v 0.135467 q 0.237067,-0.654756 0.733778,-1.004711 0.496711,-0.361245 1.185333,-0.361245 1.817511,0 1.817511,2.3368 z"
         style="font-style:normal;font-variant:normal;font-weight:500;font-stretch:normal;font-size:11.28888893px;font-family:'Arima Madurai';-inkscape-font-specification:'Arima Madurai, Medium';font-variant-ligatures:normal;font-variant-caps:normal;font-variant-numeric:normal;font-feature-settings:normal;text-align:start;writing-mode:lr-tb;text-anchor:start;fill:#e1c440;fill-opacity:1;stroke-width:0.26458332"
         id="path889"
         inkscape:connector-curvature="0" />
      <path
         d="m 75.379264,88.655087 q -0.666044,0 -1.286933,-0.180622 -0.620889,-0.191911 -0.993422,-0.575734 v -7.078133 q 0,-0.259645 0.146755,-0.4064 0.158045,-0.158045 0.4064,-0.158045 0.361245,0 0.632178,0.237067 -0.158044,0.632178 -0.158044,1.794933 l -0.01129,1.682045 q 0.214489,-0.6096 0.699911,-0.982133 0.496711,-0.383823 1.174044,-0.383823 0.948267,0 1.456267,0.677334 0.519289,0.677333 0.519289,2.111022 0,1.490133 -0.632178,2.381956 -0.632178,0.880533 -1.952978,0.880533 z m -0.05644,-0.474133 q 0.903111,-0.02258 1.230489,-0.801512 0.327378,-0.778933 0.327378,-1.998133 0,-1.128889 -0.270934,-1.659467 -0.270933,-0.530577 -0.8128,-0.530577 -0.575733,0 -0.959555,0.395111 -0.372534,0.395111 -0.553156,1.004711 -0.169333,0.6096 -0.169333,1.253067 v 1.9304 q 0.158044,0.169333 0.508,0.293511 0.349955,0.112889 0.699911,0.112889 z"
         style="font-style:normal;font-variant:normal;font-weight:500;font-stretch:normal;font-size:11.28888893px;font-family:'Arima Madurai';-inkscape-font-specification:'Arima Madurai, Medium';font-variant-ligatures:normal;font-variant-caps:normal;font-variant-numeric:normal;font-feature-settings:normal;text-align:start;writing-mode:lr-tb;text-anchor:start;fill:#e1c440;fill-opacity:1;stroke-width:0.26458332"
         id="path891"
         inkscape:connector-curvature="0" />
      <path
         d="m 81.553404,88.655087 q -1.241778,0 -1.941689,-0.790222 -0.688622,-0.801511 -0.688622,-2.223911 0,-1.433689 0.688622,-2.2352 0.699911,-0.801512 1.941689,-0.801512 1.241778,0 1.9304,0.801512 0.688622,0.801511 0.688622,2.2352 0,1.4224 -0.688622,2.223911 -0.688622,0.790222 -1.9304,0.790222 z m 0,-0.428978 q 0.745066,0 1.128889,-0.666044 0.395111,-0.666045 0.395111,-1.919111 0,-1.275645 -0.395111,-1.941689 -0.383823,-0.666045 -1.128889,-0.666045 -0.756356,0 -1.151467,0.666045 -0.383822,0.666044 -0.383822,1.941689 0,1.253066 0.383822,1.919111 0.395111,0.666044 1.151467,0.666044 z"
         style="font-style:normal;font-variant:normal;font-weight:500;font-stretch:normal;font-size:11.28888893px;font-family:'Arima Madurai';-inkscape-font-specification:'Arima Madurai, Medium';font-variant-ligatures:normal;font-variant-caps:normal;font-variant-numeric:normal;font-feature-settings:normal;text-align:start;writing-mode:lr-tb;text-anchor:start;fill:#e1c440;fill-opacity:1;stroke-width:0.26458332"
         id="path893"
         inkscape:connector-curvature="0" />
      <path
         d="m 90.683646,87.616509 q 0.124178,0.180622 0.124178,0.383822 0,0.259645 -0.248356,0.440267 -0.237067,0.180622 -0.587022,0.180622 -0.519289,0 -0.778934,-0.361244 -0.259644,-0.361245 -0.259644,-1.128889 v -0.180622 q -0.349956,0.767644 -0.970844,1.230489 -0.620889,0.451555 -1.388534,0.451555 -0.654755,0 -1.038578,-0.349955 -0.383822,-0.361245 -0.383822,-0.959556 0,-0.677333 0.519289,-1.140178 0.519289,-0.474133 1.365956,-0.7112 0.903111,-0.237066 1.840089,-0.2032 v -0.282222 q 0,-1.004711 -0.316089,-1.478844 -0.3048,-0.474134 -1.027289,-0.474134 -0.462845,0 -0.778934,0.214489 -0.316088,0.214489 -0.316088,0.688622 0,0.248356 0.112888,0.485423 0.124178,0.225777 0.361245,0.316088 -0.2032,0.237067 -0.598311,0.237067 -0.4064,0 -0.654756,-0.293511 -0.248355,-0.3048 -0.248355,-0.7112 0,-0.654756 0.587022,-1.004711 0.598311,-0.361245 1.6256,-0.361245 1.185333,0 1.738489,0.587023 0.564444,0.587022 0.564444,1.851377 v 2.190045 q 0,0.598311 0.395111,0.598311 0.09031,0 0.191911,-0.05644 0.1016,-0.05644 0.169334,-0.158045 z m -3.668889,0.316089 q 0.417689,0 0.857955,-0.316089 0.440267,-0.327378 0.733778,-0.846667 0.293511,-0.530577 0.3048,-1.1176 -0.417689,-0.02258 -0.880533,0.04516 -0.462845,0.05644 -0.778933,0.191911 -0.474134,0.180622 -0.733778,0.485422 -0.248356,0.3048 -0.248356,0.722489 0,0.361245 0.180622,0.598311 0.180623,0.237067 0.564445,0.237067 z"
         style="font-style:normal;font-variant:normal;font-weight:500;font-stretch:normal;font-size:11.28888893px;font-family:'Arima Madurai';-inkscape-font-specification:'Arima Madurai, Medium';font-variant-ligatures:normal;font-variant-caps:normal;font-variant-numeric:normal;font-feature-settings:normal;text-align:start;writing-mode:lr-tb;text-anchor:start;fill:#e1c440;fill-opacity:1;stroke-width:0.26458332"
         id="path895"
         inkscape:connector-curvature="0" />
      <path
         d="m 94.326955,82.604242 q 0.587022,0 0.948267,0.327378 0.372533,0.316089 0.372533,0.869245 0,0.395111 -0.225778,0.643466 -0.225778,0.248356 -0.541866,0.248356 -0.282223,0 -0.4064,-0.146756 0.124177,-0.191911 0.169333,-0.349955 0.04515,-0.158045 0.04515,-0.372534 0,-0.677333 -0.620888,-0.677333 -0.485423,0 -0.8128,0.654756 -0.316089,0.654755 -0.316089,1.998133 0,1.388533 0.02258,1.8288 0.02258,0.428978 0.146756,0.756356 -0.09031,0.09031 -0.248356,0.158044 -0.146755,0.06773 -0.349955,0.07902 -0.248356,0 -0.417689,-0.158044 Q 91.92242,88.29384 91.92242,88.011618 v -4.030133 q 0,-0.3048 -0.07902,-0.440267 -0.06773,-0.135466 -0.237066,-0.135466 -0.214489,0 -0.293511,0.158044 -0.135467,-0.191911 -0.135467,-0.372533 0,-0.259645 0.191911,-0.417689 0.191911,-0.158045 0.530578,-0.158045 0.451555,0 0.688622,0.327378 0.248356,0.316089 0.237067,0.936978 0.191911,-0.620889 0.575733,-0.948267 0.383822,-0.327378 0.925689,-0.327378 z"
         style="font-style:normal;font-variant:normal;font-weight:500;font-stretch:normal;font-size:11.28888893px;font-family:'Arima Madurai';-inkscape-font-specification:'Arima Madurai, Medium';font-variant-ligatures:normal;font-variant-caps:normal;font-variant-numeric:normal;font-feature-settings:normal;text-align:start;writing-mode:lr-tb;text-anchor:start;fill:#e1c440;fill-opacity:1;stroke-width:0.26458332"
         id="path897"
         inkscape:connector-curvature="0" />
      <path
         d="m 101.99511,87.650376 q 0.12418,0.180622 0.12418,0.383822 0,0.248356 -0.21449,0.4064 -0.21449,0.158044 -0.54187,0.158044 -0.95955,0 -0.99342,-1.478844 -0.25964,0.733778 -0.767644,1.140178 -0.496711,0.395111 -1.2192,0.395111 -1.061155,0 -1.512711,-0.790222 -0.440267,-0.801511 -0.440267,-1.975556 0,-1.557867 0.620889,-2.415822 0.620889,-0.869245 1.761067,-0.869245 0.564444,0 0.948267,0.225778 0.395109,0.225778 0.564439,0.632178 v -1.309511 q 0,-1.049867 -0.16933,-1.659467 0.23707,-0.237067 0.58702,-0.237067 0.25965,0 0.42898,0.158045 0.16933,0.146755 0.16933,0.4064 l -0.0113,6.412089 q 0,0.587022 0.36124,0.587022 0.21449,0 0.3048,-0.169333 z m -3.330222,0.395111 q 0.508,0 0.880534,-0.4064 0.383822,-0.4064 0.575728,-1.095022 0.19192,-0.688623 0.19192,-1.501423 0,-1.862666 -1.309515,-1.862666 -0.722489,0 -1.106311,0.688622 -0.372533,0.677333 -0.372533,1.986844 0,1.016 0.237066,1.603023 0.237067,0.587022 0.903111,0.587022 z"
         style="font-style:normal;font-variant:normal;font-weight:500;font-stretch:normal;font-size:11.28888893px;font-family:'Arima Madurai';-inkscape-font-specification:'Arima Madurai, Medium';font-variant-ligatures:normal;font-variant-caps:normal;font-variant-numeric:normal;font-feature-settings:normal;text-align:start;writing-mode:lr-tb;text-anchor:start;fill:#e1c440;fill-opacity:1;stroke-width:0.26458332"
         id="path899"
         inkscape:connector-curvature="0" />
    </g>
  </g>
</svg>
